<svg xmlns="http://www.w3.org/2000/svg" width="1280" height="280" viewBox="0 0 1280 280" role="img" aria-labelledby="title desc">
  <title id="title">AI News Briefing Digest workflow</title>
  <desc id="desc">A seven step n8n workflow: Manual Trigger, RSS Read, Sort, Limit to five, Prepare AI Prompt, OpenAI Briefing, Parse AI Briefing.</desc>
  <rect width="1280" height="280" rx="18" fill="#101828"/>
  <g fill="none" stroke="#344054" stroke-width="2">
    <path d="M154 140h38"/>
    <path d="M314 140h38"/>
    <path d="M474 140h38"/>
    <path d="M634 140h38"/>
    <path d="M794 140h38"/>
    <path d="M954 140h38"/>
  </g>
  <g fill="#EA4B71">
    <path d="M188 132l16 8-16 8z"/>
    <path d="M348 132l16 8-16 8z"/>
    <path d="M508 132l16 8-16 8z"/>
    <path d="M668 132l16 8-16 8z"/>
    <path d="M828 132l16 8-16 8z"/>
    <path d="M988 132l16 8-16 8z"/>
  </g>
  <g font-family="Inter, Arial, sans-serif">
    <g transform="translate(34 74)">
      <rect width="120" height="132" rx="10" fill="#F2F4F7"/>
      <circle cx="60" cy="40" r="18" fill="#12B76A"/>
      <path d="M54 32l18 8-18 8z" fill="#fff"/>
      <text x="60" y="82" font-size="14" font-weight="700" text-anchor="middle" fill="#101828">Manual</text>
      <text x="60" y="101" font-size="11" text-anchor="middle" fill="#667085">start safely</text>
    </g>
    <g transform="translate(194 74)">
      <rect width="120" height="132" rx="10" fill="#F2F4F7"/>
      <circle cx="60" cy="40" r="18" fill="#0BA5EC"/>
      <path d="M50 31h20v6H50zm0 10h20v6H50zm0 10h14v6H50z" fill="#fff"/>
      <text x="60" y="82" font-size="14" font-weight="700" text-anchor="middle" fill="#101828">RSS Read</text>
      <text x="60" y="101" font-size="11" text-anchor="middle" fill="#667085">AI news feed</text>
    </g>
    <g transform="translate(354 74)">
      <rect width="120" height="132" rx="10" fill="#F2F4F7"/>
      <circle cx="60" cy="40" r="18" fill="#F79009"/>
      <path d="M51 33h18v5H51zm0 9h13v5H51zm0 9h8v5H51z" fill="#fff"/>
      <text x="60" y="82" font-size="14" font-weight="700" text-anchor="middle" fill="#101828">Sort</text>
      <text x="60" y="101" font-size="11" text-anchor="middle" fill="#667085">newest first</text>
    </g>
    <g transform="translate(514 74)">
      <rect width="120" height="132" rx="10" fill="#F2F4F7"/>
      <circle cx="60" cy="40" r="18" fill="#7A5AF8"/>
      <text x="60" y="47" font-size="19" font-weight="800" text-anchor="middle" fill="#fff">5</text>
      <text x="60" y="82" font-size="14" font-weight="700" text-anchor="middle" fill="#101828">Limit</text>
      <text x="60" y="101" font-size="11" text-anchor="middle" fill="#667085">top 5</text>
    </g>
    <g transform="translate(674 74)">
      <rect width="120" height="132" rx="10" fill="#F2F4F7"/>
      <circle cx="60" cy="40" r="18" fill="#475467"/>
      <path d="M49 34h22v4H49zm0 8h22v4H49zm0 8h16v4H49z" fill="#fff"/>
      <text x="60" y="82" font-size="14" font-weight="700" text-anchor="middle" fill="#101828">Prompt</text>
      <text x="60" y="101" font-size="11" text-anchor="middle" fill="#667085">combine items</text>
    </g>
    <g transform="translate(834 74)">
      <rect width="120" height="132" rx="10" fill="#F2F4F7"/>
      <circle cx="60" cy="40" r="18" fill="#EA4B71"/>
      <text x="60" y="47" font-size="18" font-weight="800" text-anchor="middle" fill="#fff">AI</text>
      <text x="60" y="82" font-size="14" font-weight="700" text-anchor="middle" fill="#101828">OpenAI</text>
      <text x="60" y="101" font-size="11" text-anchor="middle" fill="#667085">gpt-4o-mini</text>
    </g>
    <g transform="translate(994 74)">
      <rect width="154" height="132" rx="10" fill="#F2F4F7"/>
      <circle cx="77" cy="40" r="18" fill="#17B26A"/>
      <path d="M67 34h20v5H67zm0 9h20v5H67zm0 9h14v5H67z" fill="#fff"/>
      <text x="77" y="82" font-size="14" font-weight="700" text-anchor="middle" fill="#101828">Parse Briefing</text>
      <text x="77" y="101" font-size="11" text-anchor="middle" fill="#667085">clean JSON output</text>
    </g>
  </g>
</svg>

